HIERARCHY
ROOT Hips
{
	OFFSET 0.000000 100.481300 0.000000
	CHANNELS 6 Xposition Yposition Zposition Xrotation Yrotation Zrotation 
	JOINT Spine
	{
		OFFSET -0.279200 12.230698 -2.892100
		CHANNELS 3 Xrotation Yrotation Zrotation
		JOINT Spine1
		{
			OFFSET -0.232667 10.192268 -1.242267
			CHANNELS 3 Xrotation Yrotation Zrotation
			JOINT Spine1_split
			{
				OFFSET -0.232667 10.192268 -1.242267
				CHANNELS 3 Xrotation Yrotation Zrotation
				JOINT Spine2
				{
					OFFSET -0.232667 10.192268 -1.242267
					CHANNELS 3 Xrotation Yrotation Zrotation
					JOINT Neck
					{
						OFFSET -0.418800 17.814194 8.416900
						CHANNELS 3 Xrotation Yrotation Zrotation
						JOINT Head
						{
							OFFSET 0.000000 7.031097 3.806800
							CHANNELS 3 Xrotation Yrotation Zrotation
							JOINT HeadTop_End
							{
								OFFSET 0.000000 24.646606 12.978600
								CHANNELS 3 Xrotation Yrotation Zrotation
								End Site
								{
									OFFSET 0.000000 0.000000 0.000000
								}
							}
						}
					}
					JOINT LeftShoulder
					{
						OFFSET 8.476499 7.247704 -3.868750
						CHANNELS 3 Xrotation Yrotation Zrotation
						JOINT LeftShoulder_split
						{
							OFFSET 8.476499 7.247704 -3.868750
							CHANNELS 3 Xrotation Yrotation Zrotation
							JOINT LeftArm
							{
								OFFSET 9.308998 -2.777710 0.208600
								CHANNELS 3 Xrotation Yrotation Zrotation
								JOINT LeftForeArm
								{
									OFFSET 29.972298 0.000000 0.000000
									CHANNELS 3 Xrotation Yrotation Zrotation
									JOINT LeftHand
									{
										OFFSET 26.026505 0.000000 0.000000
										CHANNELS 3 Xrotation Yrotation Zrotation
										JOINT LeftHandThumb1
										{
											OFFSET 12.240501 -7.147949 9.207150
											CHANNELS 3 Xrotation Yrotation Zrotation
											JOINT LeftHandThumb2
											{
												OFFSET 4.138618 -2.389435 2.389433
												CHANNELS 3 Xrotation Yrotation Zrotation
												JOINT LeftHandThumb3
												{
													OFFSET 2.726913 -1.574387 1.574386
													CHANNELS 3 Xrotation Yrotation Zrotation
													JOINT LeftHandThumb4
													{
														OFFSET 3.941010 -2.275345 2.275342
														CHANNELS 3 Xrotation Yrotation Zrotation
														End Site
														{
															OFFSET 0.000000 0.000000 0.000000
														}
													}
												}
											}
										}
										JOINT LeftHandIndex1
										{
											OFFSET 24.424698 -1.985611 5.953459
											CHANNELS 3 Xrotation Yrotation Zrotation
											JOINT LeftHandIndex2
											{
												OFFSET 6.426697 0.000000 0.000000
												CHANNELS 3 Xrotation Yrotation Zrotation
												JOINT LeftHandIndex3
												{
													OFFSET 5.337898 0.000000 0.000000
													CHANNELS 3 Xrotation Yrotation Zrotation
													JOINT LeftHandIndex4
													{
														OFFSET 4.409401 0.000000 0.000000
														CHANNELS 3 Xrotation Yrotation Zrotation
														End Site
														{
															OFFSET 0.000000 0.000000 0.000000
														}
													}
												}
											}
										}
										JOINT LeftHandMiddle1
										{
											OFFSET 23.810104 0.000000 0.000000
											CHANNELS 3 Xrotation Yrotation Zrotation
											JOINT LeftHandMiddle2
											{
												OFFSET 7.176498 0.000000 0.000000
												CHANNELS 3 Xrotation Yrotation Zrotation
												JOINT LeftHandMiddle3
												{
													OFFSET 6.774902 0.000000 0.000000
													CHANNELS 3 Xrotation Yrotation Zrotation
													JOINT LeftHandMiddle4
													{
														OFFSET 5.403328 0.000000 0.000000
														CHANNELS 3 Xrotation Yrotation Zrotation
														End Site
														{
															OFFSET 0.000000 0.000000 0.000000
														}
													}
												}
											}
										}
										JOINT LeftHandRing1
										{
											OFFSET 22.908401 -0.839279 -6.020567
											CHANNELS 3 Xrotation Yrotation Zrotation
											JOINT LeftHandRing2
											{
												OFFSET 6.337502 0.000000 0.000000
												CHANNELS 3 Xrotation Yrotation Zrotation
												JOINT LeftHandRing3
												{
													OFFSET 5.779297 0.000000 0.000000
													CHANNELS 3 Xrotation Yrotation Zrotation
													JOINT LeftHandRing4
													{
														OFFSET 4.965698 0.000000 0.000000
														CHANNELS 3 Xrotation Yrotation Zrotation
														End Site
														{
															OFFSET 0.000000 0.000000 0.000000
														}
													}
												}
											}
										}
										JOINT LeftHandPinky1
										{
											OFFSET 20.037003 -1.530319 -10.950146
											CHANNELS 3 Xrotation Yrotation Zrotation
											JOINT LeftHandPinky2
											{
												OFFSET 5.254700 0.000000 0.000000
												CHANNELS 3 Xrotation Yrotation Zrotation
												JOINT LeftHandPinky3
												{
													OFFSET 4.810204 0.000000 0.000000
													CHANNELS 3 Xrotation Yrotation Zrotation
													JOINT LeftHandPinky4
													{
														OFFSET 3.647202 0.000000 0.000000
														CHANNELS 3 Xrotation Yrotation Zrotation
														End Site
														{
															OFFSET 0.000000 0.000000 0.000000
														}
													}
												}
											}
										}
									}
								}
							}
						}
					}
					JOINT RightShoulder
					{
						OFFSET -7.570500 7.247704 -3.868750
						CHANNELS 3 Xrotation Yrotation Zrotation
						JOINT RightShoulder_split
						{
							OFFSET -7.570500 7.247704 -3.868750
							CHANNELS 3 Xrotation Yrotation Zrotation
							JOINT RightArm
							{
								OFFSET -9.308998 -2.777710 0.208500
								CHANNELS 3 Xrotation Yrotation Zrotation
								JOINT RightForeArm
								{
									OFFSET -29.972300 0.000000 0.000000
									CHANNELS 3 Xrotation Yrotation Zrotation
									JOINT RightHand
									{
										OFFSET -26.026505 0.000000 0.000000
										CHANNELS 3 Xrotation Yrotation Zrotation
										JOINT RightHandThumb1
										{
											OFFSET -12.240601 -7.148026 9.207092
											CHANNELS 3 Xrotation Yrotation Zrotation
											JOINT RightHandThumb2
											{
												OFFSET -4.138618 -2.389435 2.389433
												CHANNELS 3 Xrotation Yrotation Zrotation
												JOINT RightHandThumb3
												{
													OFFSET -2.726974 -1.574417 1.574421
													CHANNELS 3 Xrotation Yrotation Zrotation
													JOINT RightHandThumb4
													{
														OFFSET -3.941010 -2.275345 2.275343
														CHANNELS 3 Xrotation Yrotation Zrotation
														End Site
														{
															OFFSET 0.000000 0.000000 0.000000
														}
													}
												}
											}
										}
										JOINT RightHandIndex1
										{
											OFFSET -24.424698 -1.985657 5.953444
											CHANNELS 3 Xrotation Yrotation Zrotation
											JOINT RightHandIndex2
											{
												OFFSET -6.426697 0.000000 0.000000
												CHANNELS 3 Xrotation Yrotation Zrotation
												JOINT RightHandIndex3
												{
													OFFSET -5.337898 0.000000 0.000000
													CHANNELS 3 Xrotation Yrotation Zrotation
													JOINT RightHandIndex4
													{
														OFFSET -4.409401 0.000000 0.000000
														CHANNELS 3 Xrotation Yrotation Zrotation
														End Site
														{
															OFFSET 0.000000 0.000000 0.000000
														}
													}
												}
											}
										}
										JOINT RightHandMiddle1
										{
											OFFSET -23.810097 0.000000 0.000000
											CHANNELS 3 Xrotation Yrotation Zrotation
											JOINT RightHandMiddle2
											{
												OFFSET -7.176498 0.000000 0.000000
												CHANNELS 3 Xrotation Yrotation Zrotation
												JOINT RightHandMiddle3
												{
													OFFSET -6.774902 0.000000 0.000000
													CHANNELS 3 Xrotation Yrotation Zrotation
													JOINT RightHandMiddle4
													{
														OFFSET -5.403328 0.000000 0.000000
														CHANNELS 3 Xrotation Yrotation Zrotation
														End Site
														{
															OFFSET 0.000000 0.000000 0.000000
														}
													}
												}
											}
										}
										JOINT RightHandRing1
										{
											OFFSET -22.908302 -0.839325 -6.020576
											CHANNELS 3 Xrotation Yrotation Zrotation
											JOINT RightHandRing2
											{
												OFFSET -6.337502 0.000000 0.000000
												CHANNELS 3 Xrotation Yrotation Zrotation
												JOINT RightHandRing3
												{
													OFFSET -5.779297 0.000000 0.000000
													CHANNELS 3 Xrotation Yrotation Zrotation
													JOINT RightHandRing4
													{
														OFFSET -4.965698 0.000000 0.000000
														CHANNELS 3 Xrotation Yrotation Zrotation
														End Site
														{
															OFFSET 0.000000 0.000000 0.000000
														}
													}
												}
											}
										}
										JOINT RightHandPinky1
										{
											OFFSET -20.037003 -1.530334 -10.950259
											CHANNELS 3 Xrotation Yrotation Zrotation
											JOINT RightHandPinky2
											{
												OFFSET -5.254700 0.000000 0.000000
												CHANNELS 3 Xrotation Yrotation Zrotation
												JOINT RightHandPinky3
												{
													OFFSET -4.810204 0.000000 0.000000
													CHANNELS 3 Xrotation Yrotation Zrotation
													JOINT RightHandPinky4
													{
														OFFSET -3.647202 0.000000 0.000000
														CHANNELS 3 Xrotation Yrotation Zrotation
														End Site
														{
															OFFSET 0.000000 0.000000 0.000000
														}
													}
												}
											}
										}
									}
								}
							}
						}
					}
				}
			}
		}
	}
	JOINT LeftUpLeg
	{
		OFFSET 15.427100 -6.655098 0.678600
		CHANNELS 3 Xrotation Yrotation Zrotation
		JOINT LeftLeg
		{
			OFFSET 4.081073 -39.591068 13.024000
			CHANNELS 3 Xrotation Yrotation Zrotation
			JOINT LeftFoot
			{
				OFFSET -4.081074 -37.707932 -15.979700
				CHANNELS 3 Xrotation Yrotation Zrotation
				JOINT LeftToeBase
				{
					OFFSET 5.346399 -15.068900 20.645000
					CHANNELS 3 Xrotation Yrotation Zrotation
					JOINT LeftToe_End
					{
						OFFSET 2.754700 0.931300 11.300900
						CHANNELS 3 Xrotation Yrotation Zrotation
						End Site
						{
							OFFSET 0.000000 0.000000 0.000000
						}
					}
				}
			}
		}
	}
	JOINT RightUpLeg
	{
		OFFSET -15.569500 -6.655098 0.678600
		CHANNELS 3 Xrotation Yrotation Zrotation
		JOINT RightLeg
		{
			OFFSET -4.081825 -39.591045 13.023800
			CHANNELS 3 Xrotation Yrotation Zrotation
			JOINT RightFoot
			{
				OFFSET 4.081824 -37.707954 -15.979600
				CHANNELS 3 Xrotation Yrotation Zrotation
				JOINT RightToeBase
				{
					OFFSET -5.346400 -15.068900 20.645000
					CHANNELS 3 Xrotation Yrotation Zrotation
					JOINT RightToe_End
					{
						OFFSET -2.754700 0.931300 11.300900
						CHANNELS 3 Xrotation Yrotation Zrotation
						End Site
						{
							OFFSET 0.000000 0.000000 0.000000
						}
					}
				}
			}
		}
	}
}
MOTION
Frames: 4
Frame Time: 0.016667
2.195107 72.838989 -1.714692 -5.400173 -46.432087 -0.526811 9.420038 7.435523 -1.366546 2.187716 0.989899 -0.915630 0.000000 0.000000 0.000000 2.202829 0.982771 -0.894153 0.084654 13.220553 4.538680 8.920923 20.138142 -4.130236 0.000000 0.000000 -0.000000 1.117178 3.546350 -8.633307 0.000000 0.000000 0.000000 -53.487003 4.935514 -51.502994 -0.000060 -106.358080 -0.000046 1.988610 -7.706147 -15.869267 -6.141222 -11.690799 -6.761685 9.914115 42.595519 3.409856 -0.422809 8.108094 27.509111 -0.000002 0.000002 0.000001 0.255306 3.378219 -45.814334 5.654092 5.847761 -88.067441 2.162141 4.544811 -50.866372 -0.000000 0.000001 -0.000001 -0.461474 3.841597 -39.722676 6.450752 5.820351 -95.892878 2.182896 4.561571 -51.127736 0.000000 -0.000002 -0.000002 0.469726 4.966830 -39.799430 8.181041 5.368614 -113.502998 3.200490 5.218117 -63.022982 -0.000002 0.000003 0.000000 -3.762435 9.063687 -45.253821 5.342534 5.828999 -85.005304 8.716831 5.103323 -119.369194 0.000000 0.000001 0.000001 3.036128 13.027199 -5.371408 0.000000 0.000000 0.000000 -48.713715 27.172825 83.457091 0.000136 105.988294 -0.000136 -8.345372 17.548086 8.775693 -7.341106 13.749652 7.412324 9.855804 -44.489076 -3.903251 -0.115778 -14.513076 -28.973871 -0.000001 0.000002 -0.000003 -0.124378 -2.384791 45.108871 4.500592 -4.654543 88.071164 1.723220 -3.618376 50.920102 0.000001 0.000000 -0.000002 -0.761622 -2.932902 39.031055 5.133887 -4.632759 95.881663 1.739742 -3.631703 51.181350 -0.000001 -0.000001 0.000000 0.154765 -4.068816 39.122671 6.509721 -4.273596 113.462891 2.549582 -4.153932 63.067330 -0.000000 0.000000 -0.000001 -4.198871 -8.025509 44.637783 4.252918 -4.639634 85.014839 6.935962 -4.062626 119.322271 -0.000001 0.000000 -0.000001 -34.255506 5.085941 20.300792 56.771696 -7.634033 3.672672 -20.133017 -7.078554 -17.222798 -1.594039 -0.000009 0.000004 0.000000 -0.000002 -0.000000 -19.408589 -8.980186 -34.667612 57.008003 -2.876313 -4.766477 -26.306588 -10.338664 26.246277 -0.012997 0.000006 -0.000003 -0.000000 -0.000001 0.000000 
2.309907 72.344261 -1.245644 -5.081882 -46.707603 -0.344750 9.637918 7.573848 -1.642335 2.062174 1.010600 -0.893727 0.000000 0.000000 0.000000 2.076815 1.004107 -0.874001 0.115995 13.237035 4.673037 8.696457 20.175023 -3.730633 0.000001 0.000000 0.000000 1.112660 3.581130 -8.635981 0.000000 0.000000 0.000000 -53.210664 4.972764 -51.357244 -0.000002 -106.367745 -0.000000 2.411219 -7.507510 -16.196291 -6.141222 -11.690798 -6.761695 9.914120 42.595525 3.409855 -0.422812 8.108092 27.509111 0.000001 0.000001 -0.000003 0.255306 3.378219 -45.814341 5.654090 5.847762 -88.067441 2.162142 4.544812 -50.866372 0.000000 -0.000001 -0.000002 -0.461474 3.841594 -39.722679 6.450748 5.820356 -95.892878 2.182900 4.561572 -51.127740 -0.000000 -0.000001 -0.000000 0.469727 4.966826 -39.799430 8.181038 5.368616 -113.502998 3.200490 5.218116 -63.022975 -0.000001 -0.000001 -0.000001 -3.762437 9.063687 -45.253818 5.342538 5.828997 -85.005304 8.716830 5.103323 -119.369194 0.000000 -0.000000 -0.000002 3.105120 13.142782 -5.328003 0.000000 0.000000 0.000000 -48.727444 27.290303 83.461538 0.000134 105.913722 -0.000136 -8.160908 17.583426 8.793042 -7.341105 13.749654 7.412325 9.855796 -44.489083 -3.903246 -0.115777 -14.513073 -28.973874 -0.000001 0.000002 -0.000003 -0.124379 -2.384787 45.108868 4.500591 -4.654543 88.071164 1.723219 -3.618377 50.920105 0.000000 -0.000000 0.000002 -0.761623 -2.932902 39.031055 5.133887 -4.632759 95.881663 1.739742 -3.631700 51.181353 0.000001 -0.000000 0.000005 0.154764 -4.068814 39.122664 6.509725 -4.273596 113.462891 2.549581 -4.153930 63.067330 -0.000001 0.000000 -0.000001 -4.198872 -8.025508 44.637779 4.252920 -4.639636 85.014839 6.935961 -4.062628 119.322257 -0.000003 0.000000 0.000000 -34.625781 4.934102 20.181824 58.018659 -7.480566 3.591335 -20.943831 -6.577432 -16.949458 -1.636961 0.000012 0.000006 0.000000 -0.000000 -0.000000 -19.959244 -8.758048 -35.167695 57.468870 -2.090075 -4.726808 -26.420726 -10.638279 26.250990 -0.024334 -0.000001 0.000001 -0.000000 0.000001 -0.000000 
2.450879 71.735558 -0.717937 -4.838977 -47.079135 -0.204742 9.919029 7.711497 -1.846423 1.916819 1.031762 -0.894298 0.000000 0.000000 0.000000 1.931407 1.025008 -0.876845 0.148176 13.275048 4.803503 8.434760 20.259429 -3.299768 -0.000000 0.000000 0.000000 1.110769 3.630399 -8.655377 0.000000 0.000000 0.000000 -52.841765 5.112478 -51.141683 0.000101 -106.568033 0.000110 2.622629 -7.353740 -16.403714 -6.141222 -11.690799 -6.761686 9.914119 42.595519 3.409859 -0.422804 8.108087 27.509111 -0.000002 0.000002 0.000000 0.255307 3.378222 -45.814337 5.654092 5.847759 -88.067441 2.162141 4.544811 -50.866376 0.000001 -0.000001 0.000000 -0.461473 3.841600 -39.722679 6.450749 5.820354 -95.892878 2.182895 4.561574 -51.127743 0.000001 0.000001 0.000002 0.469728 4.966832 -39.799430 8.181039 5.368615 -113.502998 3.200490 5.218120 -63.022975 -0.000000 0.000002 -0.000001 -3.762435 9.063691 -45.253818 5.342539 5.829000 -85.005304 8.716833 5.103324 -119.369194 -0.000000 0.000001 0.000000 3.169173 13.274904 -5.296749 0.000000 0.000000 0.000000 -48.735742 27.444508 83.446149 -0.000046 105.845741 0.000013 -7.984250 17.693520 8.782191 -7.341105 13.749654 7.412330 9.855804 -44.489086 -3.903244 -0.115776 -14.513076 -28.973871 0.000001 -0.000000 -0.000000 -0.124378 -2.384790 45.108868 4.500591 -4.654542 88.071164 1.723221 -3.618376 50.920098 -0.000001 0.000002 0.000001 -0.761620 -2.932900 39.031055 5.133888 -4.632759 95.881663 1.739743 -3.631700 51.181350 -0.000001 -0.000001 -0.000001 0.154766 -4.068814 39.122668 6.509725 -4.273596 113.462891 2.549582 -4.153931 63.067330 0.000001 0.000001 -0.000000 -4.198869 -8.025508 44.637786 4.252921 -4.639634 85.014839 6.935960 -4.062629 119.322257 -0.000001 0.000000 0.000000 -35.071396 4.775909 20.112961 59.547925 -7.179173 3.566616 -21.786041 -6.274905 -16.780431 -1.953565 0.000018 0.000001 0.000000 0.000001 -0.000000 -20.634920 -8.510374 -35.762696 58.067598 -1.122480 -4.777716 -26.572450 -10.953009 26.244824 -0.009095 -0.000014 -0.000002 -0.000000 -0.000001 0.000000 
2.627267 70.988480 -0.109334 -4.722424 -47.525720 -0.134098 10.267913 7.849918 -1.967430 1.751585 1.053337 -0.915970 0.000000 0.000000 0.000000 1.766521 1.045413 -0.901337 0.181823 13.330687 4.930964 8.143636 20.381259 -2.845091 0.000000 -0.000000 -0.000000 1.111787 3.693826 -8.692150 0.000000 0.000000 0.000000 -52.361719 5.340831 -50.878308 0.000094 -106.890500 0.000102 2.654534 -7.266168 -16.480630 -6.141223 -11.690799 -6.761691 9.914119 42.595525 3.409865 -0.422806 8.108085 27.509111 0.000000 -0.000001 0.000002 0.255305 3.378219 -45.814337 5.654093 5.847760 -88.067441 2.162142 4.544813 -50.866379 -0.000001 0.000001 -0.000002 -0.461475 3.841596 -39.722676 6.450747 5.820353 -95.892878 2.182894 4.561573 -51.127736 0.000000 0.000001 0.000001 0.469727 4.966827 -39.799437 8.181042 5.368614 -113.502998 3.200492 5.218117 -63.022982 -0.000002 0.000002 -0.000000 -3.762437 9.063686 -45.253818 5.342534 5.828999 -85.005304 8.716831 5.103323 -119.369194 0.000000 0.000000 0.000001 3.224296 13.415399 -5.279437 0.000000 0.000000 0.000000 -48.718151 27.637165 83.417551 0.000243 105.772234 -0.000252 -7.808823 17.876215 8.743116 -7.341105 13.749655 7.412324 9.855806 -44.489086 -3.903241 -0.115780 -14.513078 -28.973867 0.000001 -0.000003 0.000001 -0.124379 -2.384788 45.108868 4.500590 -4.654543 88.071164 1.723221 -3.618376 50.920105 -0.000000 -0.000003 -0.000005 -0.761623 -2.932901 39.031058 5.133887 -4.632759 95.881663 1.739743 -3.631701 51.181350 -0.000001 0.000000 0.000001 0.154764 -4.068812 39.122661 6.509725 -4.273596 113.462884 2.549580 -4.153931 63.067330 -0.000001 0.000000 -0.000000 -4.198873 -8.025509 44.637779 4.252921 -4.639636 85.014839 6.935960 -4.062626 119.322271 -0.000002 0.000000 -0.000000 -35.641416 4.569867 20.076373 61.486142 -6.757815 3.615436 -22.583807 -6.188907 -16.803432 -2.539650 -0.000002 -0.000003 -0.000000 0.000000 0.000000 -21.364512 -8.200510 -36.483237 58.810032 0.022564 -4.918659 -26.767499 -11.303277 26.272902 0.019614 0.000009 0.017843 0.000000 -0.000000 0.000000 
